<svg xmlns="http://www.w3.org/2000/svg">
<symbol id="another" width="64" height="64" viewBox="0 0 64.1 64.1" fill="none">
  <g clip-path="url(#clip0_0_3616)">
    <rect width="64" height="64" rx="20" fill="#7156FD" fill-opacity="0.2"/>
    <path d="M34.4271 31.9805C34.4271 37.4924 29.8952 41.9607 24.305 41.9607C18.7149 41.9607 14.1826 37.4924 14.1826 31.9805C14.1826 26.4686 18.7146 22 24.305 22C29.8955 22 34.4271 26.4686 34.4271 31.9805Z" fill="#01FFC2"/>
    <path d="M45.5308 31.9808C45.5308 37.1691 43.2648 41.3767 40.4696 41.3767C37.6744 41.3767 35.4084 37.1691 35.4084 31.9808C35.4084 26.7926 37.674 22.585 40.4693 22.585C43.2645 22.585 45.5305 26.7912 45.5305 31.9808" fill="#01FFC2"/>
    <path d="M50.0735 31.981C50.0735 36.6284 49.2767 40.3982 48.2935 40.3982C47.3103 40.3982 46.5138 36.6294 46.5138 31.981C46.5138 27.3325 47.3106 23.5637 48.2935 23.5637C49.2764 23.5637 50.0735 27.3322 50.0735 31.981Z" fill="#01FFC2"/>
  </g>
  <defs>
    <clipPath id="clip0_0_3616">
      <rect width="64" height="64" fill="white"/>
    </clipPath>
  </defs>
</symbol>
<symbol id="chertick-text" width="93" height="12" viewBox="0 0 93.1 12.1">
  <path d="M47.9375 2.26276V5.58386C47.939 5.83217 47.8908 6.07818 47.7959 6.30782C47.701 6.53738 47.5625 6.74606 47.3865 6.9216C47.2113 7.09721 47.0024 7.23625 46.7728 7.33083C46.5433 7.42541 46.2969 7.47362 46.0489 7.47263H44.318L47.8747 11.6906H46.1905L42.6491 7.47263H38.4896C38.2839 7.46214 38.0788 7.44117 37.8753 7.40972V11.6906H36.5954V0.373991H46.039C46.2877 0.372996 46.5333 0.421205 46.7629 0.515785C46.9932 0.610366 47.2014 0.749404 47.3773 0.92502C47.5526 1.10064 47.6918 1.30923 47.786 1.5388C47.8809 1.76844 47.9291 2.01445 47.9283 2.26276H47.9375ZM38.4939 6.18217H46.0489C46.1278 6.18317 46.2058 6.1684 46.2793 6.13863C46.352 6.10894 46.4185 6.06494 46.4744 6.00916C46.5303 5.95337 46.5739 5.88703 46.6037 5.81403C46.6336 5.74095 46.6481 5.66267 46.6473 5.58386V2.26276C46.6481 2.1828 46.6336 2.10329 46.6045 2.02899C46.5746 1.95469 46.5303 1.88697 46.4744 1.82981C46.4201 1.77127 46.3543 1.72482 46.2808 1.6936C46.2073 1.6623 46.1278 1.647 46.0482 1.64845H38.4928C38.3301 1.64929 38.1744 1.71434 38.0593 1.82935C37.9443 1.94436 37.8793 2.10015 37.8785 2.26276V5.58386C37.8768 5.66374 37.8921 5.74302 37.9234 5.81656C37.9546 5.89009 38.0011 5.95621 38.0598 6.01046C38.1171 6.06647 38.1849 6.11055 38.2595 6.14001C38.334 6.16955 38.4137 6.18386 38.4939 6.18217Z"/>
  <path fill-rule="evenodd" clip-rule="evenodd" d="M54.7064 0.35791H66.0346V1.63773H61.0225V11.6958H59.7423V1.63773H54.7064V0.35791ZM72.9009 11.6905V0.35791H74.1811V11.6905H72.9009ZM91.1902 0.35791H92.8277L88.0903 6.02422L92.843 11.6905H91.1902L86.9723 6.66945H83.3207V11.6905H82.0321V0.35791H83.323V5.37792H86.9746L91.1902 0.35791Z"/>
  <path d="M11.5948 1.63344H2.18194C2.01926 1.63428 1.86346 1.69933 1.74845 1.81434C1.63344 1.92935 1.56847 2.08507 1.56763 2.24775V9.80283C1.5687 9.96536 1.63382 10.121 1.74876 10.2359C1.86369 10.351 2.01933 10.416 2.18194 10.4171H11.5948V11.6969H2.18194C1.93355 11.698 1.68746 11.65 1.45775 11.5555C1.22811 11.4609 1.01943 11.3219 0.843815 11.1462C0.668199 10.9706 0.529162 10.7619 0.434582 10.5323C0.340079 10.3026 0.292024 10.0565 0.293172 9.80819V2.25311C0.292024 2.00472 0.340079 1.75863 0.434582 1.52899C0.529162 1.29927 0.668199 1.0906 0.843815 0.914984C1.01943 0.739368 1.22811 0.600329 1.45775 0.505826C1.68746 0.411246 1.93355 0.36319 2.18194 0.364338H11.5948V1.63344Z"/>
  <path d="M29.2699 0.35791V1.63773H20.2047V5.37792H27.4909V6.66838H20.2036V10.415H29.2688V11.6948H18.9238V0.35791H29.2699Z"/>
</symbol>
<symbol id="discord" width="64" height="64" viewBox="0 0 64 64" fill="none">
  <g clip-path="url(#clip0_0_3591)">
    <rect width="64" height="64" rx="20" fill="#7156FD" fill-opacity="0.2"/>
    <path d="M45.3221 20.321C42.9638 19.2467 40.4349 18.4552 37.7908 18.0019C37.7427 17.9932 37.6946 18.015 37.6698 18.0587C37.3445 18.6331 36.9843 19.3823 36.732 19.9712C33.8881 19.5485 31.0588 19.5485 28.2732 19.9712C28.0209 19.3692 27.6476 18.6331 27.3209 18.0587C27.2961 18.0165 27.248 17.9946 27.1998 18.0019C24.5572 18.4538 22.0283 19.2453 19.6686 20.321C19.6482 20.3298 19.6307 20.3444 19.619 20.3633C14.8223 27.4782 13.5083 34.4182 14.1529 41.2721C14.1558 41.3056 14.1748 41.3377 14.201 41.3581C17.3658 43.6655 20.4314 45.0664 23.4401 45.9949C23.4882 46.0095 23.5392 45.992 23.5699 45.9526C24.2816 44.9877 24.916 43.9702 25.4599 42.9003C25.492 42.8376 25.4614 42.7633 25.3958 42.7385C24.3895 42.3595 23.4313 41.8974 22.5096 41.3727C22.4367 41.3304 22.4308 41.2269 22.4979 41.1773C22.6919 41.033 22.8859 40.8829 23.0711 40.7313C23.1046 40.7036 23.1513 40.6977 23.1907 40.7152C29.246 43.46 35.8015 43.46 41.7854 40.7152C41.8248 40.6963 41.8715 40.7021 41.9064 40.7298C42.0917 40.8814 42.2857 41.033 42.4811 41.1773C42.5482 41.2269 42.5438 41.3304 42.4709 41.3727C41.5492 41.9076 40.591 42.3595 39.5832 42.737C39.5176 42.7618 39.4884 42.8376 39.5205 42.9003C40.0761 43.9687 40.7106 44.9862 41.4091 45.9512C41.4383 45.992 41.4908 46.0095 41.5389 45.9949C44.5622 45.0664 47.6278 43.6655 50.7925 41.3581C50.8203 41.3377 50.8378 41.3071 50.8407 41.2735C51.6122 33.3496 49.5485 26.4666 45.3702 20.3648C45.3599 20.3444 45.3425 20.3298 45.3221 20.321ZM26.3642 37.0988C24.5411 37.0988 23.039 35.4371 23.039 33.3963C23.039 31.3556 24.512 29.6939 26.3642 29.6939C28.2309 29.6939 29.7185 31.3702 29.6894 33.3963C29.6894 35.4371 28.2163 37.0988 26.3642 37.0988ZM38.6586 37.0988C36.8356 37.0988 35.3334 35.4371 35.3334 33.3963C35.3334 31.3556 36.8064 29.6939 38.6586 29.6939C40.5254 29.6939 42.0129 31.3702 41.9838 33.3963C41.9838 35.4371 40.5254 37.0988 38.6586 37.0988Z" fill="#01FFC2"/>
  </g>
  <defs>
    <clipPath id="clip0_0_3591">
      <rect width="64" height="64" fill="white"/>
    </clipPath>
  </defs>
</symbol>
<symbol id="facebook" width="64" height="64" viewBox="0 0 64.1 64.1" fill="none">
  <g clip-path="url(#clip0_0_3600)">
    <rect width="64" height="64" rx="20" fill="#7156FD" fill-opacity="0.2"/>
    <path d="M27.9619 46.3456C27.9677 46.2549 27.9677 46.1639 27.9619 46.0732V32.1373H25.0996V27.2828H28.021V26.9157C28.021 25.8264 28.021 24.7371 28.021 23.6478C28.0295 22.4474 28.3561 21.2707 28.9673 20.2378C29.5435 19.2957 30.4644 18.616 31.5339 18.3434C32.1607 18.153 32.8079 18.0377 33.4618 18C35.0467 18 36.6435 18 38.1929 18V22.8545H37.8972H35.2597C35.076 22.8638 34.8937 22.8916 34.7156 22.9374C34.4705 22.9897 34.2514 23.1259 34.096 23.3226C33.9405 23.5193 33.8584 23.7641 33.8639 24.0149C33.8639 25.0568 33.8639 26.1224 33.8639 27.1762C33.8639 27.1762 33.8639 27.1762 33.8639 27.2472H38.252L37.7316 32.1373H33.8166V46.014C33.8166 46.1324 33.8166 46.2508 33.8166 46.3692L27.9619 46.3456Z" fill="#01FFC2"/>
  </g>
  <defs>
    <clipPath id="clip0_0_3600">
      <rect width="64" height="64" fill="white"/>
    </clipPath>
  </defs>
</symbol>
<symbol id="instagram" width="30" height="30" viewBox="0 0 30.1 30.1" fill="none">
  <g clip-path="url(#clip0_0_3611)">
    <path fill-rule="evenodd" clip-rule="evenodd" d="M24.807 6.99305C24.807 7.98727 24.0009 8.79305 23.007 8.79305C22.013 8.79305 21.207 7.98727 21.207 6.99305C21.207 5.99883 22.013 5.19305 23.007 5.19305C24.0012 5.19305 24.807 5.99883 24.807 6.99305ZM15 19.9999C12.2386 19.9999 10.0001 17.7614 10.0001 15C10.0001 12.2386 12.2386 10.0001 15 10.0001C17.7614 10.0001 19.9999 12.2386 19.9999 15C19.9999 17.7614 17.7614 19.9999 15 19.9999ZM15 7.29727C10.7459 7.29727 7.29727 10.7459 7.29727 15C7.29727 19.2541 10.7459 22.7027 15 22.7027C19.2541 22.7027 22.7027 19.2541 22.7027 15C22.7027 10.7459 19.2541 7.29727 15 7.29727ZM15 2.70281C19.0052 2.70281 19.4796 2.71805 21.0612 2.79023C22.5237 2.85703 23.318 3.10125 23.8465 3.3068C24.5466 3.57891 25.0462 3.90398 25.5712 4.42898C26.0962 4.95375 26.4213 5.45344 26.6934 6.15375C26.8988 6.68227 27.1432 7.47656 27.21 8.93906C27.2822 10.5209 27.2974 10.9952 27.2974 15.0005C27.2974 19.0057 27.2822 19.4801 27.21 21.0616C27.1432 22.5241 26.899 23.3184 26.6934 23.847C26.4213 24.547 26.0962 25.0467 25.5712 25.5717C25.0465 26.0967 24.5468 26.4218 23.8465 26.6939C23.318 26.8992 22.5237 27.1437 21.0612 27.2105C19.4796 27.2827 19.0052 27.2979 15 27.2979C10.9945 27.2979 10.5202 27.2827 8.93859 27.2105C7.47609 27.1437 6.6818 26.8995 6.15328 26.6939C5.4532 26.4218 4.95352 26.0967 4.42852 25.5717C3.90375 25.047 3.57844 24.5473 3.30633 23.847C3.10102 23.3184 2.85656 22.5241 2.78977 21.0616C2.71758 19.4798 2.70234 19.0055 2.70234 15.0005C2.70234 10.9952 2.71758 10.5209 2.78977 8.93906C2.85656 7.47656 3.10078 6.68227 3.30633 6.15375C3.57844 5.45367 3.90352 4.95398 4.42852 4.42898C4.95328 3.90398 5.45297 3.57891 6.15328 3.3068C6.6818 3.10148 7.47609 2.85703 8.93859 2.79023C10.5204 2.71805 10.9948 2.70281 15 2.70281ZM15 0C10.9263 0 10.4154 0.0173438 8.81555 0.0902344C7.21898 0.163125 6.12844 0.416719 5.17453 0.7875C4.18805 1.1707 3.35156 1.68375 2.51766 2.51766C1.68375 3.35156 1.1707 4.18805 0.7875 5.17453C0.416719 6.12867 0.163125 7.21898 0.0902344 8.81555C0.0173438 10.4154 0 10.9263 0 15C0 19.0737 0.0173438 19.5846 0.0902344 21.1845C0.163125 22.781 0.416719 23.8713 0.7875 24.8255C1.1707 25.812 1.68375 26.6484 2.51766 27.4823C3.35156 28.3162 4.18805 28.8291 5.17453 29.2125C6.12867 29.5833 7.21898 29.8369 8.81555 29.9098C10.4154 29.9827 10.9263 30 15 30C19.0737 30 19.5846 29.9827 21.1845 29.9098C22.781 29.8369 23.8713 29.5833 24.8255 29.2125C25.812 28.8291 26.6484 28.3162 27.4823 27.4823C28.3162 26.6484 28.8291 25.812 29.2125 24.8255C29.5833 23.8713 29.8369 22.781 29.9098 21.1845C29.9827 19.5846 30 19.0737 30 15C30 10.9263 29.9827 10.4154 29.9098 8.81555C29.8369 7.21898 29.5833 6.12867 29.2125 5.17453C28.8291 4.18805 28.3162 3.35156 27.4823 2.51766C26.6484 1.68375 25.812 1.17094 24.8255 0.7875C23.8713 0.416719 22.781 0.163125 21.1845 0.0902344C19.5846 0.0173438 19.0737 0 15 0Z" fill="#01FFC2"/>
  </g>
  <defs>
    <clipPath id="clip0_0_3611">
      <rect width="30" height="30" fill="white"/>
    </clipPath>
  </defs>
</symbol>
<symbol id="logo-text" width="92" height="19" viewBox="0 0 92.1 19.1">
  <path d="M10.2121 13.9377C9.9594 13.9377 9.73604 13.9795 9.54438 14.0621C9.34936 14.1462 9.19036 14.2533 9.06643 14.3873C8.9401 14.5209 8.82145 14.6703 8.71049 14.8307C8.59953 14.9935 8.47896 15.154 8.34879 15.3168C8.21861 15.4792 8.07547 15.6266 7.91647 15.7602C7.75796 15.8942 7.54949 16.0013 7.28914 16.0854C7.02879 16.1675 6.73433 16.2098 6.40385 16.2098C5.4494 16.2098 4.71495 15.8846 4.19665 15.2342C3.68027 14.5843 3.42233 13.6985 3.42233 12.5779C3.42233 11.8127 3.51023 11.1512 3.68796 10.5907C3.86569 10.0306 4.10682 9.60209 4.41088 9.30188C4.71495 9.00358 5.03438 8.78358 5.36918 8.64572C5.70399 8.50786 6.0556 8.43917 6.42883 8.43917C6.89381 8.43917 7.28578 8.50978 7.60521 8.6534C7.92656 8.79511 8.16578 8.96899 8.32813 9.17362C8.49049 9.37825 8.63988 9.58288 8.77774 9.78751C8.9156 9.99214 9.08757 10.166 9.29219 10.3077C9.49682 10.4494 9.74949 10.522 10.0497 10.522C10.5219 10.522 10.9143 10.3899 11.2261 10.1262C11.5378 9.86196 11.693 9.48537 11.693 8.99589C11.693 8.14471 11.192 7.37759 10.1914 6.69502C9.1894 6.01436 7.97075 5.67188 6.53643 5.67188C4.41569 5.67188 2.77626 6.30113 1.62102 7.55965C0.465776 8.81768 -0.113525 10.4874 -0.113525 12.5779C-0.113525 13.5169 0.0185707 14.372 0.282282 15.1444C0.545994 15.9172 0.936518 16.5921 1.45289 17.1681C1.96927 17.7435 2.64224 18.1893 3.47036 18.5049C4.29848 18.8205 5.24525 18.9771 6.30874 18.9771C7.17722 18.9771 7.96499 18.8584 8.67447 18.6216C9.38394 18.3862 9.95027 18.0822 10.373 17.7109C10.7957 17.34 11.1209 16.9442 11.3481 16.5215C11.5758 16.0988 11.6906 15.6876 11.6906 15.2861C11.6906 14.9224 11.5527 14.6069 11.2775 14.3393C11.0003 14.0717 10.6463 13.9377 10.214 13.9377H10.2121Z"/>
  <path d="M25.1754 8.08909C24.9156 7.46223 24.5635 6.97804 24.1216 6.63939C23.6796 6.30123 23.2094 6.05433 22.7084 5.90158C22.2074 5.74834 21.6737 5.67005 21.104 5.67005C19.417 5.67005 18.0994 6.29354 17.1546 7.5386H17.107V2.66546C17.107 2.09721 16.9485 1.66153 16.6291 1.35939C16.3096 1.05485 15.8773 0.9021 15.334 0.9021C14.7908 0.9021 14.3585 1.05485 14.0448 1.35939C13.7292 1.66345 13.5707 2.09721 13.5707 2.66546V17.2023C13.5707 18.3863 14.1577 18.9772 15.334 18.9772C16.5104 18.9772 17.1089 18.3863 17.1089 17.2023V11.3713C17.1089 10.5355 17.388 9.86205 17.9486 9.34952C18.5091 8.83699 19.123 8.58096 19.7922 8.58096C20.5266 8.58096 21.0833 8.80096 21.4599 9.2424C21.8385 9.68433 22.0282 10.279 22.0282 11.0288V17.2023C22.0282 18.3863 22.6152 18.9772 23.7896 18.9772C24.9641 18.9772 25.5645 18.3863 25.5645 17.2023V10.3174C25.5645 9.45856 25.4343 8.7145 25.1745 8.08717L25.1764 8.08909H25.1754Z"/>
  <path d="M40.5942 12.6794C40.8103 12.469 40.9194 12.0655 40.9194 11.467C40.9194 10.7326 40.7724 10.0212 40.4813 9.33235C40.1888 8.64209 39.7795 8.02628 39.2516 7.48108C38.7218 6.93829 38.0488 6.50021 37.2284 6.16733C36.4079 5.83637 35.5053 5.67017 34.5202 5.67017C32.445 5.67017 30.8138 6.2975 29.624 7.55217C28.4327 8.80493 27.838 10.4741 27.838 12.555C27.838 13.1939 27.9125 13.8116 28.0619 14.4063C28.2112 15.0014 28.4615 15.5807 28.8136 16.1394C29.1638 16.6995 29.5942 17.1889 30.1029 17.6059C30.6115 18.0247 31.2562 18.3576 32.0363 18.6065C32.8168 18.8548 33.6848 18.9792 34.6393 18.9792C35.0812 18.9792 35.5457 18.9393 36.0352 18.8606C36.5232 18.7823 37.0165 18.6559 37.5137 18.4878C38.0108 18.3197 38.4547 18.1131 38.8486 17.8739C39.2425 17.6328 39.5638 17.3383 39.8146 16.9862C40.0629 16.6365 40.1854 16.2537 40.1854 15.8444C40.1854 15.4986 40.0461 15.183 39.7665 14.8982C39.4874 14.6147 39.1411 14.4735 38.7319 14.4735C38.472 14.4735 38.2347 14.5326 38.0224 14.6493C37.8101 14.768 37.6131 14.913 37.4315 15.0816C37.25 15.2498 37.0492 15.4222 36.8292 15.5961C36.6073 15.7681 36.309 15.9155 35.9357 16.0342C35.5611 16.1523 35.1288 16.2119 34.6412 16.2119C33.6315 16.2119 32.8356 15.9136 32.2524 15.3189C31.6693 14.7238 31.3763 13.9495 31.3763 12.995H39.3726C39.9712 12.995 40.3804 12.8898 40.5966 12.6813L40.5946 12.6794H40.5942ZM31.3739 10.9583C31.5785 10.0745 31.9517 9.38615 32.4912 8.88899C33.0301 8.39183 33.7324 8.143 34.5908 8.143C35.3733 8.143 36.0405 8.41056 36.5953 8.94039C37.152 9.47213 37.4767 10.1456 37.5709 10.9583H31.3739Z"/>
  <path d="M55.4163 12.6794C55.6325 12.469 55.7415 12.0655 55.7415 11.467C55.7415 10.7326 55.594 10.0212 55.3034 9.33235C55.0109 8.64209 54.6016 8.02628 54.0737 7.48108C53.5439 6.93829 52.8709 6.50021 52.05 6.16733C51.2296 5.83637 50.327 5.67017 49.3423 5.67017C47.2672 5.67017 45.6359 6.2975 44.4461 7.55217C43.2548 8.80493 42.6597 10.4741 42.6597 12.555C42.6597 13.1939 42.7346 13.8116 42.8835 14.4063C43.0329 15.0014 43.2832 15.5807 43.6353 16.1394C43.985 16.6995 44.4153 17.1889 44.924 17.6059C45.4327 18.0247 46.0774 18.3576 46.8579 18.6065C47.638 18.8548 48.5065 18.9792 49.4609 18.9792C49.9024 18.9792 50.3674 18.9393 50.8568 18.8606C51.3444 18.7823 51.8382 18.6559 52.3353 18.4878C52.8325 18.3197 53.2764 18.1131 53.6702 17.8739C54.0641 17.6347 54.3855 17.3383 54.6357 16.9862C54.8846 16.6365 55.007 16.2537 55.007 15.8444C55.007 15.4986 54.8673 15.183 54.5882 14.8982C54.3091 14.6147 53.9628 14.4735 53.5535 14.4735C53.2932 14.4735 53.0563 14.5326 52.844 14.6493C52.6317 14.768 52.4348 14.913 52.2532 15.0816C52.0712 15.2498 51.8704 15.4222 51.6504 15.5961C51.4289 15.7681 51.1301 15.9155 50.7574 16.0342C50.3827 16.1523 49.9504 16.2119 49.4629 16.2119C48.4527 16.2119 47.6572 15.9136 47.0741 15.3189C46.4905 14.7238 46.1979 13.9495 46.1979 12.995H54.1943C54.7928 12.995 55.2021 12.8898 55.4182 12.6813L55.4163 12.6794ZM46.196 10.9583C46.4006 10.0745 46.7739 9.38615 47.3128 8.88899C47.8522 8.39183 48.554 8.143 49.4129 8.143C50.1949 8.143 50.8626 8.41056 51.4174 8.94039C51.9736 9.47213 52.2988 10.1456 52.3925 10.9583H46.196Z"/>
  <path d="M61.2645 1.35939C60.9489 1.05485 60.519 0.9021 59.9738 0.9021C59.4286 0.9021 58.9982 1.05485 58.6788 1.35939C58.3594 1.66345 58.2009 2.09721 58.2009 2.66546V17.2023C58.2009 17.7705 58.3594 18.2086 58.6788 18.5165C58.9982 18.8244 59.4306 18.9772 59.9738 18.9772C60.5171 18.9772 60.9489 18.8244 61.2645 18.5165C61.5782 18.2086 61.7372 17.7705 61.7372 17.2023V2.66546C61.7372 2.09721 61.5782 1.66153 61.2645 1.35939Z"/>
  <path d="M76.9662 12.6794C77.1824 12.469 77.2914 12.0655 77.2914 11.467C77.2914 10.7326 77.1444 10.0212 76.8538 9.33235C76.5608 8.64209 76.1516 8.02628 75.6237 7.48108C75.0943 6.93829 74.4209 6.50021 73.6004 6.16733C72.78 5.83637 71.8774 5.67017 70.8922 5.67017C68.8171 5.67017 67.1859 6.2975 65.9965 7.55217C64.8048 8.80493 64.2101 10.4741 64.2101 12.555C64.2101 13.1939 64.2845 13.8116 64.4339 14.4063C64.5828 15.0014 64.8336 15.5807 65.1852 16.1394C65.5354 16.6995 65.9658 17.1889 66.4745 17.6059C66.9831 18.0247 67.6278 18.3576 68.4079 18.6065C69.1884 18.8548 70.0564 18.9792 71.0109 18.9792C71.4528 18.9792 71.9173 18.9393 72.4072 18.8606C72.8948 18.7823 73.3881 18.6559 73.8853 18.4878C74.3824 18.3197 74.8263 18.1131 75.2202 17.8739C75.6145 17.6347 75.9354 17.3383 76.1862 16.9862C76.435 16.6365 76.557 16.2537 76.557 15.8444C76.557 15.4986 76.4177 15.183 76.1386 14.8982C75.859 14.6128 75.5132 14.4735 75.1039 14.4735C74.8436 14.4735 74.6063 14.5326 74.394 14.6493C74.1817 14.768 73.9847 14.913 73.8031 15.0816C73.6216 15.2498 73.4208 15.4222 73.2008 15.5961C72.9789 15.7681 72.6806 15.9155 72.3078 16.0342C71.9327 16.1523 71.5003 16.2119 71.0128 16.2119C70.0031 16.2119 69.2076 15.9136 68.624 15.3189C68.0409 14.7238 67.7483 13.9495 67.7483 12.995H75.7442C76.3432 12.995 76.7525 12.8898 76.9682 12.6813L76.9662 12.6794ZM67.7464 10.9583C67.951 10.0745 68.3238 9.38615 68.8632 8.88899C69.4027 8.39183 70.1044 8.143 70.9633 8.143C71.7453 8.143 72.413 8.41056 72.9673 8.94039C73.5241 9.47213 73.8493 10.1456 73.9429 10.9583H67.7464Z"/>
  <path d="M91.7884 12.6794C92.0045 12.469 92.1136 12.0655 92.1136 11.467C92.1136 10.7326 91.9661 10.0212 91.6755 9.33235C91.383 8.64209 90.9737 8.02628 90.4458 7.48108C89.916 6.93829 89.243 6.50021 88.4226 6.16733C87.6021 5.83637 86.6991 5.67017 85.7144 5.67017C83.6393 5.67017 82.008 6.2975 80.8182 7.55217C79.6269 8.80493 79.0322 10.4741 79.0322 12.555C79.0322 13.1939 79.1067 13.8116 79.2556 14.4063C79.405 15.0014 79.6552 15.5807 80.0073 16.1394C80.3575 16.6995 80.7879 17.1889 81.2966 17.6059C81.8053 18.0247 82.4494 18.3576 83.23 18.6065C84.0101 18.8548 84.8786 18.9792 85.833 18.9792C86.2745 18.9792 86.7394 18.9393 87.2289 18.8606C87.7169 18.7823 88.2103 18.6559 88.7074 18.4878C89.2046 18.3197 89.6484 18.1131 90.0423 17.8739C90.4362 17.6347 90.7576 17.3383 91.0083 16.9862C91.2566 16.6365 91.3791 16.2537 91.3791 15.8444C91.3791 15.4986 91.2393 15.183 90.9603 14.8982C90.6812 14.6147 90.3348 14.4735 89.9256 14.4735C89.6657 14.4735 89.4284 14.5326 89.2161 14.6493C89.0038 14.768 88.8069 14.913 88.6253 15.0816C88.4432 15.2498 88.2424 15.4222 88.0229 15.5961C87.801 15.7681 87.5027 15.9155 87.1295 16.0342C86.7548 16.1523 86.3225 16.2119 85.8349 16.2119C84.8248 16.2119 84.0293 15.9136 83.4462 15.3189C82.8625 14.7238 82.57 13.9495 82.57 12.995H90.5664C91.1649 12.995 91.5741 12.8898 91.7903 12.6813L91.7884 12.6794ZM82.5681 10.9583C82.7727 10.0745 83.1459 9.38615 83.6854 8.88899C84.2243 8.39183 84.9266 8.143 85.785 8.143C86.5675 8.143 87.2347 8.41056 87.7895 8.94039C88.3457 9.47213 88.6709 10.1456 88.7646 10.9583H82.5681Z"/>
</symbol>
<symbol id="play" width="40" height="52" viewBox="0 0 40.1 52.1" fill="none">
  <path d="M26.9009 19.5205L9.85571 10.395C8.96993 9.92082 8.00946 9.89658 7.17816 10.1997L21.6999 24.7214L26.9009 19.5205Z" fill="#01FFC2"/>
  <path d="M33.2581 22.9231L28.3482 20.2946L22.8112 25.8315L28.3482 31.3685L33.258 28.7399C35.5806 27.4965 35.5806 24.1665 33.2581 22.9231Z" fill="#01FFC2"/>
  <path d="M5.84908 11.0908C5.32827 11.6632 5 12.4274 5 13.3029V38.3601C5 39.2357 5.32827 39.9999 5.84901 40.5723L20.5898 25.8315L5.84908 11.0908Z" fill="#01FFC2"/>
  <path d="M7.17816 41.4647C8.0094 41.7677 8.96993 41.7436 9.85571 41.2693L26.9009 32.1438L21.7 26.9429L7.17816 41.4647Z" fill="#01FFC2"/>
</symbol>
<symbol id="telegram" width="64" height="64" viewBox="0 0 64.1 64.1" fill="none">
  <g clip-path="url(#clip0_0_3594)">
    <rect width="64" height="64" rx="20" fill="#7156FD" fill-opacity="0.2"/>
    <path d="M17.141 32.0244L24.2117 34.3297L26.9126 42.9823C27.24 43.9292 27.0763 44.3049 28.0322 44.3049C28.7689 44.3049 29.0962 43.9548 29.5055 43.5365C29.7657 43.2701 31.3126 41.7016 33.0404 39.9504L40.3943 45.6189C41.7472 46.3976 42.7244 45.9938 43.0616 44.3075L47.8906 20.5763C48.3816 18.5092 47.1351 17.5717 45.8444 18.1856L17.4937 29.5876C15.5589 30.397 15.5712 31.5223 17.141 32.0244ZM41.2561 23.3094C42.0517 22.8065 42.7809 23.0772 42.1826 23.6313L28.5372 36.4745L28.006 42.3864L25.3207 33.7978L41.2561 23.3094Z" fill="#01FFC2"/>
  </g>
  <defs>
    <clipPath id="clip0_0_3594">
      <rect width="64" height="64" fill="white"/>
    </clipPath>
  </defs>
</symbol>
<symbol id="trigon-lang" width="10" height="6" viewBox="0 0 10.1 6.1">
  <path d="M5 5.5L0 0.5H10L5 5.5Z"/>
</symbol>
<symbol id="trigon" width="8" height="6" viewBox="0 0 8.1 6.1">
  <path d="M3.93005 0.5L0.430054 5.5H7.43005L3.93005 0.5Z"/>
</symbol>
<symbol id="twitter" width="64" height="64" viewBox="0 0 64.1 64.1" fill="none">
  <g clip-path="url(#clip0_0_3597)">
    <rect width="64" height="64" rx="20" fill="#7156FD" fill-opacity="0.2"/>
    <path d="M47.7987 21.7535C45.7121 22.4896 45.4542 22.3961 46.4506 21.2745C47.2111 20.5254 47.7921 19.6148 48.1503 18.6106C48.1503 18.5288 47.7869 18.6106 47.3649 18.8793C46.6717 19.2214 45.9501 19.5029 45.2081 19.7206L43.8835 20.1412L42.7112 19.3233C42.061 18.8806 41.3607 18.5159 40.6247 18.2367C39.2072 17.892 37.7237 17.9243 36.3226 18.3302C34.8531 18.8333 33.5897 19.8028 32.7259 21.0901C31.862 22.3774 31.4455 23.9115 31.54 25.4573L31.6103 26.6257L30.4381 26.4855C25.9937 25.9366 21.8643 23.9116 18.7159 20.7371L17.0866 19.1247L16.6763 20.2931C16.2255 21.5351 16.1292 22.8775 16.3983 24.1708C16.6673 25.4642 17.2911 26.6577 18.2002 27.6188C19.1848 28.6586 18.9621 28.7871 17.2624 28.1913C16.6763 27.9927 16.1605 27.8408 16.0902 27.9226C16.1612 29.0718 16.46 30.1956 16.9693 31.229C17.7546 32.5937 18.9243 33.6986 20.3336 34.407L21.5058 34.9678H20.0757C18.7042 34.9678 18.6573 34.9678 18.798 35.517C19.2307 36.4808 19.8642 37.3419 20.6565 38.0429C21.4488 38.7439 22.3816 39.2689 23.3931 39.5829L24.917 40.097L23.5924 40.8915C21.5813 42.0339 19.3184 42.664 17.0045 42.7258C16.3301 42.6925 15.6546 42.7594 15 42.9245C16.4554 43.86 18.0332 44.5912 19.6889 45.0976C22.3604 45.9114 25.1694 46.1787 27.9472 45.8836C30.725 45.5884 33.4143 44.7369 35.8538 43.3801C39.489 41.0665 42.3467 37.7217 44.0593 33.7761C44.9907 31.4016 45.5558 28.9002 45.7356 26.3569C45.7356 25.1886 45.8059 25.06 47.1774 23.7047C47.8046 23.1195 48.381 22.4824 48.9005 21.8003C49.1115 21.3329 49.0881 21.3329 47.7987 21.7535Z" fill="#01FFC2"/>
  </g>
  <defs>
    <clipPath id="clip0_0_3597">
      <rect width="64" height="64" fill="white"/>
    </clipPath>
  </defs>
</symbol>
</svg>